<?xml version="1.0" encoding="UTF-8" standalone="no"?>
<svg
   xmlns:dc="http://purl.org/dc/elements/1.1/"
   xmlns:cc="http://creativecommons.org/ns#"
   xmlns:rdf="http://www.w3.org/1999/02/22-rdf-syntax-ns#"
   xmlns:svg="http://www.w3.org/2000/svg"
   xmlns="http://www.w3.org/2000/svg"
   viewBox="0 0 72.724625 72.724625"
   height="72.724625"
   width="72.724625"
   xml:space="preserve"
   version="1.1"
   id="svg2"><metadata
     id="metadata8"><rdf:RDF><cc:Work
         rdf:about=""><dc:format>image/svg+xml</dc:format><dc:type
           rdf:resource="http://purl.org/dc/dcmitype/StillImage" /><dc:title></dc:title></cc:Work></rdf:RDF></metadata><defs
     id="defs6"><clipPath
       id="clipPath22"
       clipPathUnits="userSpaceOnUse"><path
         id="path24"
         d="m 0,58.18 58.18,0 L 58.18,0 0,0 0,58.18 Z" /></clipPath></defs><g
     transform="matrix(1.25,0,0,-1.25,0,72.724625)"
     id="g10"><path
       id="path12"
       style="fill:#5cc4e7;fill-opacity:1;fill-rule:nonzero;stroke:none"
       d="m 0,0 58.18,0 0,58.18 L 0,58.18 0,0 Z" /><g
       transform="translate(20.4553,6.8762)"
       id="g14"><path
         id="path16"
         style="fill:#ffffff;fill-opacity:1;fill-rule:nonzero;stroke:none"
         d="m 0,0 0,3.4 7.649,0 0,38.33 -7.649,0 0,3.401 11.532,0 L 11.532,0 0,0 Z m -3.505,0 -11.532,0 0,45.131 11.532,0 0,-3.401 -7.649,0 0,-38.33 7.649,0 0,-3.4 z" /></g><g
       id="g18"><g
         clip-path="url(#clipPath22)"
         id="g20"><g
           transform="translate(46.3737,52.0071)"
           id="g26"><path
             id="path28"
             style="fill:#ffffff;fill-opacity:1;fill-rule:nonzero;stroke:none"
             d="m 0,0 c -1.032,-7.437 -2.149,-15.157 -3.181,-22.594 -1.026,-7.55 -2.029,-14.987 -3.055,-22.536 l -3.685,0 L -3.685,0 M 7.006,0 C 5.975,-7.438 4.626,-14.983 3.594,-22.421 2.568,-29.97 1.51,-37.582 0.483,-45.131 L -3.198,-45.13 3.321,0" /></g></g></g></g></svg>